<?xml version="1.0" standalone="no"?>
<!DOCTYPE svg PUBLIC "-//W3C//DTD SVG 20010904//EN"
 "http://www.w3.org/TR/2001/REC-SVG-20010904/DTD/svg10.dtd">
<svg version="1.0" xmlns="http://www.w3.org/2000/svg"
 width="700.000000pt" height="700.000000pt" viewBox="0 0 700.000000 700.000000"
 preserveAspectRatio="xMidYMid meet">
<metadata>
Created by potrace 1.11, written by Peter Selinger 2001-2013
</metadata>
<g transform="translate(0.000000,700.000000) scale(0.100000,-0.100000)"
fill="#000000" stroke="none">
<path d="M3290 6765 c-477 -70 -880 -365 -1099 -802 -55 -111 -112 -284 -127
-388 -24 -168 -24 -403 0 -510 61 -266 132 -428 270 -615 66 -89 205 -227 298
-296 48 -35 90 -64 94 -64 4 0 15 -6 23 -14 43 -38 238 -122 371 -160 55 -15
75 -19 159 -33 25 -4 49 -8 54 -9 4 -1 10 -2 15 -3 4 0 8 -25 8 -54 2 -59 12
-309 19 -467 10 -237 17 -400 20 -495 2 -55 6 -167 9 -250 3 -82 8 -199 11
-260 5 -123 13 -322 20 -495 2 -63 7 -169 10 -235 2 -66 7 -181 10 -255 3 -74
7 -196 10 -270 23 -557 27 -661 28 -732 2 -78 10 -81 13 -5 3 101 15 403 19
487 2 47 6 159 10 250 5 156 8 224 20 515 5 127 12 283 20 505 3 74 8 185 10
245 10 224 15 363 20 495 3 74 7 185 10 245 3 61 7 169 10 240 4 127 14 367
19 473 1 29 7 56 12 61 5 5 34 11 64 15 196 20 463 133 653 275 474 354 682
948 536 1532 -52 211 -169 429 -323 603 -67 77 -211 200 -294 253 -148 95
-373 184 -526 209 -21 3 -48 8 -60 11 -46 11 -335 10 -416 -2z"/>
</g>
</svg>
